#!OML:ASF F:\VICON\USERDATA\INSTALL\rory3\rory3.ASF
:FULLY-SPECIFIED
:DEGREES
450
root 1.36927 16.729 21.7808 627.8 -47.1463 -95.3864
lowerback 2.35847 -1.15923 -6.24262
upperback -10.254 -2.61588 -11.8236
thorax -13.0116 -1.23818 -9.51123
lowerneck -38.0802 3.99155 -3.50114
upperneck -2.13777 5.13608 9.04953
head 4.4075 2.97672 4.28332
rclavicle 5.08889e-014 1.31993e-013
rhumerus 64.1874 -43.5123 -1.31243
rradius 26.2144
rwrist 15.4081
rhand -32.4189 -437.35
rfingers 7.12502
rthumb 174.347 -72.7456
lclavicle 5.08889e-014 1.31993e-013
lhumerus 64.7574 35.3971 1.56226
lradius 32.1051
lwrist 34.5226
lhand -50.4689 -612.619
lfingers 7.12502
lthumb -23.039 -78.7377
rfemur -27.2644 -6.66128 4.0199
rtibia 38.2109
rfoot 5.49377 -28.0321
rtoes -20.8272
lfemur -37.7641 33.5188 54.3707
ltibia 16.2029
lfoot -15.9792 42.8989
ltoes 12.2758
451
root 1.44752 16.6458 22.0205 628.502 -45.1998 -96.8411
lowerback 2.53881 -1.15225 -6.78839
upperback -10.029 -2.6309 -11.7669
thorax -12.8242 -1.17113 -9.10446
lowerneck -37.525 3.95121 -2.91881
upperneck -2.6249 4.86564 8.30522
head 4.22448 2.73451 3.8758
rclavicle 2.01965e-013 3.49861e-014
rhumerus 62.9487 -44.6203 -0.254845
rradius 26.0642
rwrist 16.1454
rhand -32.0425 -438.236
rfingers 7.12502
rthumb 174.71 -71.8501
lclavicle 2.01965e-013 3.49861e-014
lhumerus 64.9498 35.7838 3.78973
lradius 31.5228
lwrist 33.4458
lhand -50.4759 -613.911
lfingers 7.12502
lthumb -23.0458 -77.4468
rfemur -26.6026 -6.72418 4.02784
rtibia 40.303
rfoot 6.63125 -27.2725
rtoes -23.0426
lfemur -36.9637 33.4583 54.7102
ltibia 14.1568
lfoot -17.3383 44.5729
ltoes 13.8457
452
root 1.5265 16.5562 22.2629 629.214 -43.1695 -98.4084
lowerback 2.78801 -2.00514 -7.24612
upperback -10.2098 -3.72179 -11.7687
thorax -13.2995 -1.58758 -8.74422
lowerneck -36.9343 4.96016 -2.56688
upperneck -2.55666 6.06458 8.31588
head 4.1152 3.3258 3.95278
rclavicle 7.31528e-014 1.20861e-013
rhumerus 63.7453 -45.0038 -2.48597
rradius 25.6832
rwrist 16.2891
rhand -32.1143 -438.611
rfingers 7.12502
rthumb 174.641 -71.4769
lclavicle 7.31528e-014 1.20861e-013
lhumerus 62.3929 35.6573 2.18099
lradius 31.342
lwrist 33.068
lhand -49.4025 -620.006
lfingers 7.12502
lthumb -22.0155 -71.2274
rfemur -25.8648 -6.94744 4.05111
rtibia 42.3042
rfoot 6.67759 -26.6047
rtoes -24.0606
lfemur -36.0769 32.9502 55.0142
ltibia 11.8232
lfoot -16.4702 46.191
ltoes 13.8801
453
root 1.60499 16.4617 22.505 629.846 -41.4182 -99.8754
lowerback 2.88412 -2.62529 -7.42525
upperback -9.94488 -4.4376 -11.3156
thorax -13.0327 -1.83344 -7.98114
lowerneck -38.676 4.73098 -5.02897
upperneck -1.44753 6.72891 9.51055
head 4.52699 3.83837 4.90468
rclavicle -2.19458e-013 -4.77083e-014
rhumerus 63.3285 -45.9847 -2.19919
rradius 25.5642
rwrist 14.797
rhand -33.48 -439.315
rfingers 7.12502
rthumb 173.322 -70.8105
lclavicle -2.19458e-013 -4.77083e-014
lhumerus 59.992 36.3442 1.80441
lradius 31.4287
lwrist 33.1064
lhand -50.6122 -611.323
lfingers 7.12502
lthumb -23.1766 -80.0512
rfemur -25.1425 -7.0137 4.5294
rtibia 44.1427
rfoot 6.0882 -26.4529
rtoes -20.7228
lfemur -35.5296 33.2453 54.895
ltibia 9.45854
lfoot -15.8196 46.6648
ltoes 13.888
454
root 1.6812 16.3665 22.7354 630.374 -39.8716 -101.174
lowerback 2.88124 -2.38208 -7.6733
upperback -9.73202 -4.12943 -11.5738
thorax -12.7607 -1.68333 -8.16643
lowerneck -39.0071 4.67771 -5.14013
upperneck -0.938261 6.68661 9.27931
head 4.73476 3.80797 4.86149
rclavicle 1.27222e-013 8.26944e-014
rhumerus 56.4269 -45.8078 4.17876
rradius 26.0683
rwrist 11.8721
rhand -34.9221 -440.435
rfingers 7.12502
rthumb 171.93 -69.7392
lclavicle 1.27222e-013 8.26944e-014
lhumerus 60.9299 36.2147 3.72477
lradius 31.1115
lwrist 32.964
lhand -50.7595 -612.977
lfingers 7.12502
lthumb -23.3179 -78.415
rfemur -24.4833 -7.08695 5.51928
rtibia 45.7481
rfoot 5.96541 -26.349
rtoes -20.5269
lfemur -34.9119 33.5801 55.0481
ltibia 7.22228
lfoot -16.6977 46.6674
ltoes 15.2707
455
root 1.76217 16.2681 22.9673 630.674 -37.9166 -102.389
lowerback 3.02996 -2.3826 -8.39325
upperback -9.67264 -4.18484 -11.8195
thorax -12.7722 -1.63983 -8.04343
lowerneck -38.4166 5.8085 -2.93316
upperneck -0.833655 7.3386 7.19549
head 4.77338 3.92863 3.87136
rclavicle -1.01778e-013 -1.81292e-013
rhumerus 52.1542 -45.7527 7.04651
rradius 26.5004
rwrist 12.0181
rhand -34.3568 -440.892
rfingers 7.12502
rthumb 172.476 -69.2614
lclavicle -1.01778e-013 -1.81292e-013
lhumerus 60.5002 35.7229 4.08134
lradius 30.9189
lwrist 33.3108
lhand -50.6696 -614.504
lfingers 7.12502
lthumb -23.2316 -76.8771
rfemur -23.704 -7.21664 6.15565
rtibia 47.0745
rfoot 6.04865 -25.8184
rtoes -20.2057
lfemur -34.7871 33.7066 54.7079
ltibia 6.04878
lfoot -16.6818 46.6757
ltoes 15.2165
456
root 1.85073 16.1637 23.2088 630.87 -35.6086 -103.602
lowerback 3.2118 -2.35592 -9.59043
upperback -9.5801 -4.24273 -12.0254
thorax -12.7303 -1.54578 -7.60377
lowerneck -34.8525 6.85938 1.52049
upperneck -3.81714 7.12456 4.43562
head 3.62474 3.39849 2.06418
rclavicle -2.22639e-014 -3.81667e-014
rhumerus 48.3237 -45.6974 9.43802
rradius 26.7979
rwrist 12.9978
rhand -33.4745 -441.174
rfingers 7.12502
rthumb 173.328 -68.951
lclavicle -2.22639e-014 -3.81667e-014
lhumerus 59.8324 35.1835 4.39548
lradius 30.583
lwrist 33.6701
lhand -50.2551 -615.785
lfingers 7.12502
lthumb -22.834 -75.5463
rfemur -22.8548 -7.68828 6.39266
rtibia 48.0875
rfoot 6.00817 -24.8717
rtoes -19.4031
lfemur -35.5366 33.6938 53.8151
ltibia 6.39086
lfoot -16.0978 46.9392
ltoes 15.6052
457
root 1.94105 16.0564 23.4467 631.103 -33.4889 -104.811
lowerback 3.30854 -2.08273 -10.6098
upperback -9.28286 -3.95267 -11.9926
thorax -12.3531 -1.31381 -7.00254
lowerneck -33.6043 7.0168 2.95324
upperneck -4.97331 6.90242 2.91501
head 3.20192 3.09081 1.26501
rclavicle -1.54257e-013 -2.09917e-013
rhumerus 42.6822 -44.9423 14.5685
rradius 27.0819
rwrist 12.42
rhand -32.976 -441.296
rfingers 7.12502
rthumb 173.809 -68.8146
lclavicle -1.54257e-013 -2.09917e-013
lhumerus 59.5135 34.9151 5.63866
lradius 29.9134
lwrist 33.5816
lhand -50.8096 -614.032
lfingers 7.12502
lthumb -23.366 -77.3662
rfemur -22.1049 -8.37165 6.95282
rtibia 48.7932
rfoot 6.21295 -23.7305
rtoes -20.1072
lfemur -36.5341 33.7546 53.0387
ltibia 7.11442
lfoot -15.5508 46.7591
ltoes 17.8679
